<?xml version="1.0" encoding="UTF-8" standalone="no"?> <!-- Created with Vectornator for iOS (http://vectornator.io/) --><!DOCTYPE svg PUBLIC "-//W3C//DTD SVG 1.1//EN" "http://www.w3.org/Graphics/SVG/1.1/DTD/svg11.dtd">
<svg height="100%" style="fill-rule:evenodd;clip-rule:evenodd;stroke-linecap:round;stroke-linejoin:round;" xmlns:xlink="http://www.w3.org/1999/xlink" xmlns="http://www.w3.org/2000/svg" xml:space="preserve" width="100%" xmlns:vectornator="http://vectornator.io" version="1.1" viewBox="0 0 512 512">
<metadata>
<vectornator:setting key="DynamicGuides" value="1"/>
<vectornator:setting key="Units" value="Points"/>
<vectornator:setting key="GuidesVisible" value="1"/>
<vectornator:setting key="RulersVisible" value="1"/>
<vectornator:setting key="SnapToGuides" value="1"/>
<vectornator:setting key="GridSpacing" value="36"/>
</metadata>
<defs/>
<g id="Untitled" vectornator:layerName="Untitled">
<path d="M0+256C0+114.615+114.615+0+256+0C397.385+0+512+114.615+512+256C512+397.385+397.385+512+256+512C114.615+512+0+397.385+0+256Z" opacity="1" fill="#ff0037"/>
<path d="M512+256C512+241.617+510.794+227.518+508.515+213.782L390.365+95.632L100.757+219.722L100.757+411.962L192.965+504.17C213.131+509.277+234.247+512+256+512C397.385+512+512+397.385+512+256Z" opacity="1" fill="#d30f0f"/>
<path d="M100.76+219.72L411.24+219.72L411.24+219.72L411.24+411.96L411.24+411.96L100.76+411.96L100.76+411.96L100.76+219.72L100.76+219.72Z" opacity="1" fill="#414952"/>
<path d="M255.76+219.72L411.24+219.72L411.24+219.72L411.24+411.96L411.24+411.96L255.76+411.96L255.76+411.96L255.76+219.72L255.76+219.72Z" opacity="1" fill="#23272b"/>
<path d="M100.76+219.72L411.24+219.72L411.24+219.72L411.24+273.29L411.24+273.29L100.76+273.29L100.76+273.29L100.76+219.72L100.76+219.72Z" opacity="1" fill="#ffffff"/>
<path d="M255.76+219.72L411.24+219.72L411.24+219.72L411.24+273.29L411.24+273.29L255.76+273.29L255.76+273.29L255.76+219.72L255.76+219.72Z" opacity="1" fill="#f7f7f7"/>
<path d="M259+273.295L230.333+273.295L253+219.722L281.667+219.722L259+273.295Z" opacity="1" fill="#707789"/>
<path d="M281.667+219.722L255.762+219.722L255.762+273.295L259+273.295L281.667+219.722Z" opacity="1" fill="#636978"/>
<g opacity="1">
<path d="M194.212+273.295L165.546+273.295L188.212+219.722L216.879+219.722L194.212+273.295Z" opacity="1" fill="#707789"/>
<path d="M129.424+273.295L100.758+273.295L123.424+219.722L152.091+219.722L129.424+273.295Z" opacity="1" fill="#707789"/>
</g>
<g opacity="1">
<path d="M323.788+273.295L295.121+273.295L317.788+219.722L346.454+219.722L323.788+273.295Z" opacity="1" fill="#636978"/>
<path d="M388.576+273.295L359.909+273.295L382.576+219.722L411.242+219.722L388.576+273.295Z" opacity="1" fill="#636978"/>
</g>
<path d="M88.3444+167.617L390.39+95.6452L390.39+95.6452L402.808+147.76L402.808+147.76L100.762+219.732L100.762+219.732L88.3444+167.617L88.3444+167.617Z" opacity="1" fill="#ffffff"/>
<path d="M390.365+95.632L255.762+127.71L255.762+182.782L402.784+147.745L390.365+95.632Z" opacity="1" fill="#f7f7f7"/>
<path d="M254.689+183.037L226.804+189.683L236.434+132.316L264.32+125.67L254.689+183.037Z" opacity="1" fill="#707789"/>
<path d="M255.762+127.71L255.762+176.648L264.32+125.67L255.762+127.71Z" opacity="1" fill="#636978"/>
<g opacity="1">
<path d="M191.667+198.056L163.781+204.702L173.411+147.335L201.297+140.689L191.667+198.056Z" opacity="1" fill="#707789"/>
<path d="M128.644+213.076L100.758+219.721L110.389+162.354L138.274+155.708L128.644+213.076Z" opacity="1" fill="#707789"/>
</g>
<g opacity="1">
<path d="M317.712+168.018L289.826+174.664L299.457+117.297L327.343+110.651L317.712+168.018Z" opacity="1" fill="#636978"/>
<path d="M380.735+152.999L352.849+159.645L362.48+102.278L390.365+95.632L380.735+152.999Z" opacity="1" fill="#636978"/>
</g>
</g>
<g id="Layer 1" vectornator:layerName="Layer 1">
<path d="M351.173+295.884C342.105+295.884+334.284+300.246+329.273+307.422C324.262+300.246+316.135+295.884+307.373+295.884C291.73+295.884+279.216+308.36+279.216+323.956C279.216+345.789+329.273+385.715+329.273+385.715C329.273+385.715+379.33+345.789+379.33+323.956C379.33+308.36+366.816+295.884+351.173+295.884Z" opacity="1" fill="#b71c1c"/>
<path d="M382.318+327.696C375.12+326.137+367.922+328.013+362.288+332.691C359.477+326.137+354.161+321.153+346.963+319.277C334.449+316.475+321.935+323.956+319.124+336.432C315.054+353.903+347.586+395.694+347.586+395.694C347.586+395.694+395.456+373.239+399.525+355.463C402.336+343.291+394.833+330.815+382.318+327.696Z" opacity="1" fill="#f44336"/>
</g>
</svg>
